<?xml version="1.0" encoding="UTF-8"?>
<svg id="Ebene_1" xmlns="http://www.w3.org/2000/svg" version="1.1" viewBox="0 0 26 26">
  <!-- Generator: Adobe Illustrator 29.3.1, SVG Export Plug-In . SVG Version: 2.1.0 Build 151)  -->
  <defs>
    <style>
      .st0 {
        fill: none;
        stroke: #fff;
        stroke-miterlimit: 10;
        stroke-width: 1.5px;
      }
    </style>
  </defs>
  <path class="st0" d="M7.43902,1h10.53658c3.5649,0,6.439,2.87415,6.439,6.43902v10.53658c0,3.5649-2.8741,6.439-6.439,6.439H7.43902c-3.56487,0-6.43902-2.8741-6.43902-6.439V7.43902C1,3.87415,3.87415,1,7.43902,1ZM19.7317,4.5122c-.6439,0-1.1707.52682-1.1707,1.17073s.5268,1.17073,1.1707,1.17073,1.1707-.52683,1.1707-1.17073-.5268-1.17073-1.1707-1.17073Z"/>
  <path class="st0" d="M12.7073,7.43896c2.9151,0,5.2683,2.35318,5.2683,5.26834s-2.3532,5.2683-5.2683,5.2683-5.26834-2.3532-5.26834-5.2683,2.35318-5.26834,5.26834-5.26834Z"/>
  <metadata>
    <sfw xmlns="http://ns.adobe.com/SaveForWeb/1.0/">
      <slices/>
      <sliceSourceBounds x="0.25" y="0.84" width="24.91" height="24.91" bottomLeftOrigin="true"/>
    </sfw>
  </metadata>
</svg>