<?xml version="1.0" encoding="UTF-8"?>
<svg id="Ebene_1" xmlns="http://www.w3.org/2000/svg" version="1.1" viewBox="0 0 26 26">
  <!-- Generator: Adobe Illustrator 29.3.1, SVG Export Plug-In . SVG Version: 2.1.0 Build 151)  -->
  <defs>
    <style>
      .st0 {
        fill: none;
        stroke: #fff;
        stroke-linecap: round;
        stroke-linejoin: round;
        stroke-width: 1.5px;
      }
    </style>
  </defs>
  <path class="st0" d="M25,9.05798v1.13292c0,1.035-.5594,1.9864-1.4563,2.477l-7.9723,4.3611M1,9.05798v1.13292c0,1.035.55936,1.9864,1.45634,2.477l7.97226,4.3611M21.3077,20.1669l-5.7363-3.1379M15.5714,17.029l-1.2585-.6884c-.8196-.4484-1.8062-.4484-2.6258,0l-1.2585.6884M10.4286,17.029l-5.73629,3.1379M25,22.1867c0,1.5537-1.2398,2.8133-2.7692,2.8133H3.76923c-1.5294,0-2.76923-1.2596-2.76923-2.8133v-13.32389c0-1.03497.55936-1.98635,1.45634-2.47703L11.6871,1.33627c.8196-.44836,1.8062-.44836,2.6258,0l9.2308,5.04951c.8969.49068,1.4563,1.44207,1.4563,2.47703v13.32389Z"/>
  <metadata>
    <sfw xmlns="http://ns.adobe.com/SaveForWeb/1.0/">
      <slices/>
      <sliceSourceBounds x="0.25" y="0.25" width="25.5" height="25.5" bottomLeftOrigin="true"/>
    </sfw>
  </metadata>
</svg>