<?xml version="1.0" encoding="UTF-8"?>
<svg id="Ebene_1" xmlns="http://www.w3.org/2000/svg" version="1.1" viewBox="0 0 283.46457 48.74378">
  <!-- Generator: Adobe Illustrator 29.3.1, SVG Export Plug-In . SVG Version: 2.1.0 Build 151)  -->
  <defs>
    <style>
      .st0 {
        fill: #27614b;
      }
    </style>
  </defs>
  <path class="st0" d="M7.45915,34.58646l4.08571,1.56723v1.09277H.47446v-1.09277l3.65881-1.56723v-17.76856l-4.13328-1.37757v-1.09277l7.93362-1.42513-.47446,2.94538v18.71865Z"/>
  <path class="st0" d="M30.66374,14.53781l-1.14033,5.08336-1.23546-.14269-1.1879-4.08571c-.99765-.28479-2.28067-.47504-3.8479-.47504-2.75513,0-4.89311,1.47269-4.89311,3.99059,0,2.04286,1.32942,2.99294,4.70286,4.32353,5.55898,2.18554,7.83849,3.65765,7.83849,7.50672,0,4.51261-3.94303,7.07866-8.69345,7.07866-2.66001,0-5.65295-.52318-7.83849-1.47327l1.1879-5.27361,1.2343.14269,1.23546,4.08571c1.09277.33294,2.51848.52318,4.18084.52318,3.08807,0,5.22605-1.71108,5.22605-4.46621,0-2.23311-1.99529-3.61009-6.03345-5.13092-3.94303-1.47211-6.27126-2.99294-6.27126-6.69874,0-3.99059,3.27832-6.60361,8.02874-6.60361,2.75513,0,5.60539.76042,7.50672,1.61538Z"/>
  <path class="st0" d="M54.30102,36.86713l-6.46151.75984.23781-2.99294v-1.1879c-1.56723,2.23311-4.03815,4.37109-7.26891,4.37109-3.4674,0-6.60303-2.56604-6.60303-6.41394,0-2.80269,1.1879-3.80034,4.08571-4.70286l9.50085-2.89782v-4.03873c0-3.23075-2.32707-4.84613-4.84555-4.84613-2.4222,0-4.03815,1.23546-4.18084,5.17849l-3.94303-.47504c.3805-4.65588,4.65646-6.69874,9.02639-6.69874,4.46621,0,7.26891,2.85026,7.26891,6.55605v14.67992l3.18319,1.61596v1.09277ZM47.79195,31.97286v-6.36522l-7.50556,2.61244c-1.75748.61831-2.6136,1.23546-2.6136,2.85026,0,2.13798,1.47327,4.08571,4.13328,4.08571,2.04286,0,4.75159-1.51967,5.98588-3.18319Z"/>
  <path class="st0" d="M78.81879,24.70511c0,7.50556-4.41865,13.1121-11.30706,13.1121-2.80269,0-4.98824-1.14033-6.41394-2.37579l-2.08926,2.23311h-.90368V3.89605l-4.13328-1.37757v-1.09277l7.74453-1.42571-.28537,2.94596v15.01227c1.28302-2.37521,3.89547-5.0358,7.93362-5.0358,5.36874,0,9.45445,3.65823,9.45445,11.78268ZM75.49291,25.36983c0-6.12857-2.94538-9.73924-7.36287-9.73924-3.37344,0-5.60655,2.42278-6.69932,4.37051v8.88486c0,4.08455,2.66117,6.98353,6.60419,6.98353,5.4627,0,7.45799-5.70167,7.45799-10.49966Z"/>
  <path class="st0" d="M101.91084,30.64344c-1.14033,4.08571-4.60774,7.17378-9.31176,7.17378-6.74572,0-10.40337-4.51377-10.40337-11.78268,0-7.50614,4.84555-13.1121,10.92656-13.1121,4.75043,0,8.69345,3.13563,8.69345,8.97883,0,.66587-.04756,1.28302-.09512,1.66352h-16.10505c-.04756.56959-.09512,1.1879-.09512,1.80505,0,5.65295,2.75629,9.54957,7.83965,9.54957,3.13563,0,5.79564-1.75864,7.22134-4.6089l1.32942.33294ZM85.90092,21.66403h11.97177c.04756-.33294.09512-.71285.09512-1.14033,0-3.0405-1.6148-5.60597-5.22605-5.60597-3.65765,0-5.98588,2.85026-6.84085,6.7463Z"/>
  <path class="st0" d="M110.65534,34.58646l4.08571,1.56723v1.09277h-11.06925v-1.09277l3.65881-1.56723V3.89605l-4.13328-1.37757v-1.09277l7.74337-1.42571-.28537,2.94596v31.6405Z"/>
  <path class="st0" d="M124.30223,34.58646l4.08571,1.56723v1.09277h-11.06925v-1.09277l3.65765-1.56723V3.89605l-4.13328-1.37757v-1.09277l7.74453-1.42571-.28537,2.94596v31.6405Z"/>
  <path class="st0" d="M150.49511,36.86713l-6.46151.75984.23781-2.99294v-1.1879c-1.56723,2.23311-4.03815,4.37109-7.26891,4.37109-3.4674,0-6.60303-2.56604-6.60303-6.41394,0-2.80269,1.1879-3.80034,4.08571-4.70286l9.50085-2.89782v-4.03873c0-3.23075-2.32707-4.84613-4.84555-4.84613-2.4222,0-4.03815,1.23546-4.18084,5.17849l-3.94303-.47504c.3805-4.65588,4.65646-6.69874,9.02639-6.69874,4.46621,0,7.26891,2.85026,7.26891,6.55605v14.67992l3.18319,1.61596v1.09277ZM143.98604,31.97286v-6.36522l-7.50556,2.61244c-1.75748.61831-2.6136,1.23546-2.6136,2.85026,0,2.13798,1.47327,4.08571,4.13328,4.08571,2.04286,0,4.75159-1.51967,5.98588-3.18319Z"/>
  <path class="st0" d="M178.36125,14.53781l-1.14033,5.08336-1.23546-.14269-1.18674-4.08571c-.99765-.28479-2.28067-.47504-3.84906-.47504-2.75513,0-4.89311,1.47269-4.89311,3.99059,0,2.04286,1.33058,2.99294,4.70402,4.32353,5.55782,2.18554,7.83849,3.65765,7.83849,7.50672,0,4.51261-3.94303,7.07866-8.69461,7.07866-2.66001,0-5.65295-.52318-7.83849-1.47327l1.1879-5.27361,1.23546.14269,1.23546,4.08571c1.09277.33294,2.51732.52318,4.17968.52318,3.08807,0,5.22605-1.71108,5.22605-4.46621,0-2.23311-1.99529-3.61009-6.03345-5.13092-3.94303-1.47211-6.27126-2.99294-6.27126-6.69874,0-3.99059,3.27832-6.60361,8.0299-6.60361,2.75513,0,5.60539.76042,7.50556,1.61538Z"/>
  <path class="st0" d="M188.98736,34.58646l4.08571,1.56723v1.09277h-11.06925v-1.09277l3.65765-1.56723v-17.76856l-4.13328-1.37757v-1.09277l7.93478-1.42513-.47562,2.94538v18.71865Z"/>
  <path class="st0" d="M209.56906,33.96815c3.56369,0,6.46151,2.32823,6.46151,6.31882,0,5.27361-4.79799,8.4568-11.35462,8.4568-5.27361,0-10.26185-1.6148-10.26185-6.41394,0-2.85026,2.80385-4.6553,5.0358-5.51026-1.51967,0-3.41984-1.1879-3.41984-3.32588,0-2.23311,1.90017-3.75278,4.36993-4.89311-2.66001-1.14033-4.75043-3.56369-4.75043-7.36403,0-5.60597,4.6089-8.31412,8.74218-8.31412,1.37699,0,2.51732.28479,3.37228.57017l8.02874-.14269v2.56546h-2.37463l-2.94538-.33236v.09512c1.90017,1.23488,2.80269,2.66001,2.80269,5.22547,0,5.70167-4.27596,8.4568-8.8837,8.4568-.90368,0-1.80621-.09512-2.66117-.33294-1.42455.90252-2.66001,2.04286-2.66001,3.37344,0,.95009.66471,1.56723,1.70992,1.56723h8.78858ZM212.75225,40.90528c0-2.13798-1.1879-3.99059-3.80034-3.99059h-4.46621c-1.47211,0-2.85026.28421-3.99059.90252-1.51967.85496-2.51732,2.13798-2.51732,4.18084,0,3.37228,2.99294,4.75043,7.03109,4.75043,4.70286,0,7.74337-1.94773,7.74337-5.8432ZM199.26081,21.0463c.04756,3.70638,1.94773,6.31882,5.36758,6.31882,2.75629,0,5.0358-2.04286,5.0358-6.12857,0-3.7058-1.94773-6.31882-5.36758-6.31882-2.75629,0-5.08336,2.04286-5.0358,6.12857Z"/>
  <path class="st0" d="M244.50992,37.24647h-8.74102v-1.09277l1.33058-2.99294v-12.25714c0-3.13563-1.23546-5.0358-4.2284-5.0358-3.08807,0-5.17849,1.56781-7.17378,4.13328v14.58537l4.08571,1.56723v1.09277h-11.06925v-1.09277l3.65765-1.56723v-17.76856l-4.13328-1.37757v-1.09277l7.88721-1.42513-.71343,3.27832v2.32765c1.90017-3.0405,4.79915-5.60597,8.40924-5.60597,4.6553,0,6.60419,2.94538,6.60419,7.45857v14.30058l4.08455,1.47211v1.09277Z"/>
  <path class="st0" d="M265.33175,30.64344c-1.14033,4.08571-4.60774,7.17378-9.31176,7.17378-6.74572,0-10.40337-4.51377-10.40337-11.78268,0-7.50614,4.84555-13.1121,10.92656-13.1121,4.75043,0,8.69345,3.13563,8.69345,8.97883,0,.66587-.04756,1.28302-.09512,1.66352h-16.10505c-.04756.56959-.09512,1.1879-.09512,1.80505,0,5.65295,2.75629,9.54957,7.83965,9.54957,3.13563,0,5.79564-1.75864,7.22134-4.6089l1.32942.33294ZM249.32182,21.66403h11.97177c.04756-.33294.09512-.71285.09512-1.14033,0-3.0405-1.6148-5.60597-5.22605-5.60597-3.65765,0-5.98588,2.85026-6.84085,6.7463Z"/>
  <path class="st0" d="M283.46457,13.4926l-.85496,3.89547c-.61831-.42748-1.47327-.85496-2.89782-.85496-2.51848,0-3.99059,1.94773-5.0358,3.37286v14.6805l4.46505,1.56723v1.09277h-11.44974v-1.09277l3.65881-1.56723v-17.76856l-4.13328-1.37757v-1.09277l7.88605-1.42513-.71227,3.27832v2.23253c1.23546-2.13798,4.03815-5.51084,6.88841-5.51084,1.04521,0,1.80505.28479,2.18554.57017Z"/>
  <path class="st0" d="M158.40553,46.13075c0,1.47269-1.1879,2.61302-2.66117,2.61302-1.47211,0-2.61244-1.14033-2.61244-2.61302s1.14033-2.66001,2.61244-2.66001c1.47327,0,2.66117,1.18732,2.66117,2.66001Z"/>
  <path class="st0" d="M158.40553,2.66001c0,1.47269-1.1879,2.61302-2.66001,2.61302-1.47327,0-2.6136-1.14033-2.6136-2.61302s1.14033-2.66001,2.6136-2.66001c1.47211,0,2.66001,1.18732,2.66001,2.66001Z"/>
  <metadata>
    <sfw xmlns="http://ns.adobe.com/SaveForWeb/1.0/">
      <slices/>
      <sliceSourceBounds x="540.93" y="-408.06" width="283.46" height="48.74" bottomLeftOrigin="true"/>
    </sfw>
  </metadata>
</svg>