<svg width="82" height="82" viewBox="0 0 82 82" fill="none" xmlns="http://www.w3.org/2000/svg">
<g id="Layer_1" clip-path="url(#clip0_2094_25)">
<path id="Vector" d="M41 82C18.3926 82 0 63.6074 0 41C0 18.3926 18.3926 0 41 0C63.6074 0 82 18.3926 82 41C82 63.6074 63.6074 82 41 82ZM41 2C19.4951 2 2 19.4951 2 41C2 62.5049 19.4951 80 41 80C62.5049 80 80 62.5049 80 41C80 19.4951 62.5049 2 41 2Z" fill="#27614B"/>
<path id="Vector_2" d="M44.7254 55.49L32.1768 41L47.7432 23.0244L49.2549 24.333L34.8232 41L49.2549 57.666L47.7432 58.9746L44.7254 55.49Z" fill="#27614B"/>
</g>
<defs>
<clipPath id="clip0_2094_25">
<rect width="82" height="82" fill="white"/>
</clipPath>
</defs>
</svg>
